<mxfile host="app.diagrams.net" agent="Mozilla/5.0 (Windows NT 10.0; Win64; x64) AppleWebKit/537.36 (KHTML, like Gecko) Chrome/135.0.0.0 Safari/537.36" version="26.2.12">
  <diagram name="Страница — 1" id="0XURHnWdwZZxhtgep2Nh">
    <mxGraphModel dx="1680" dy="874" grid="1" gridSize="10" guides="1" tooltips="1" connect="1" arrows="1" fold="1" page="1" pageScale="1" pageWidth="827" pageHeight="1169" math="0" shadow="0">
      <root>
        <mxCell id="0" />
        <mxCell id="1" parent="0" />
        <mxCell id="uCTwqBEk31hx5L1SvOHl-3" style="edgeStyle=orthogonalEdgeStyle;rounded=0;orthogonalLoop=1;jettySize=auto;html=1;entryX=0.5;entryY=0;entryDx=0;entryDy=0;" parent="1" source="uCTwqBEk31hx5L1SvOHl-1" target="uCTwqBEk31hx5L1SvOHl-2" edge="1">
          <mxGeometry relative="1" as="geometry" />
        </mxCell>
        <mxCell id="uCTwqBEk31hx5L1SvOHl-1" value="Начало" style="ellipse;whiteSpace=wrap;html=1;aspect=fixed;" parent="1" vertex="1">
          <mxGeometry x="360" width="80" height="80" as="geometry" />
        </mxCell>
        <mxCell id="uCTwqBEk31hx5L1SvOHl-8" style="edgeStyle=orthogonalEdgeStyle;rounded=0;orthogonalLoop=1;jettySize=auto;html=1;entryX=0.5;entryY=0;entryDx=0;entryDy=0;" parent="1" source="uCTwqBEk31hx5L1SvOHl-2" target="uCTwqBEk31hx5L1SvOHl-7" edge="1">
          <mxGeometry relative="1" as="geometry" />
        </mxCell>
        <mxCell id="uCTwqBEk31hx5L1SvOHl-2" value="const int rc = 8;" style="rounded=0;whiteSpace=wrap;html=1;" parent="1" vertex="1">
          <mxGeometry x="352.5" y="170" width="95" height="30" as="geometry" />
        </mxCell>
        <mxCell id="uCTwqBEk31hx5L1SvOHl-6" value="&lt;div&gt;#include &amp;lt;iostream&amp;gt;&lt;/div&gt;&lt;div&gt;&lt;span style=&quot;background-color: transparent; color: light-dark(rgb(0, 0, 0), rgb(255, 255, 255));&quot;&gt;using namespace std;&lt;/span&gt;&lt;/div&gt;&lt;div&gt;&lt;span style=&quot;background-color: transparent;&quot;&gt;int main() {&lt;/span&gt;&lt;/div&gt;" style="strokeWidth=2;html=1;shape=mxgraph.flowchart.annotation_2;align=left;labelPosition=right;pointerEvents=1;" parent="1" vertex="1">
          <mxGeometry x="400" y="100" width="30" height="50" as="geometry" />
        </mxCell>
        <mxCell id="uCTwqBEk31hx5L1SvOHl-10" style="edgeStyle=orthogonalEdgeStyle;rounded=0;orthogonalLoop=1;jettySize=auto;html=1;entryX=0.5;entryY=0;entryDx=0;entryDy=0;" parent="1" source="uCTwqBEk31hx5L1SvOHl-7" target="uCTwqBEk31hx5L1SvOHl-9" edge="1">
          <mxGeometry relative="1" as="geometry" />
        </mxCell>
        <mxCell id="uCTwqBEk31hx5L1SvOHl-7" value="int table[rc][rc];" style="rounded=0;whiteSpace=wrap;html=1;" parent="1" vertex="1">
          <mxGeometry x="350" y="230" width="100" height="30" as="geometry" />
        </mxCell>
        <mxCell id="uCTwqBEk31hx5L1SvOHl-12" style="edgeStyle=orthogonalEdgeStyle;rounded=0;orthogonalLoop=1;jettySize=auto;html=1;entryX=0.5;entryY=0;entryDx=0;entryDy=0;" parent="1" source="uCTwqBEk31hx5L1SvOHl-9" target="uCTwqBEk31hx5L1SvOHl-11" edge="1">
          <mxGeometry relative="1" as="geometry" />
        </mxCell>
        <mxCell id="uCTwqBEk31hx5L1SvOHl-9" value="int range_min, range_max, a;" style="rounded=0;whiteSpace=wrap;html=1;" parent="1" vertex="1">
          <mxGeometry x="350" y="290" width="100" height="50" as="geometry" />
        </mxCell>
        <mxCell id="uCTwqBEk31hx5L1SvOHl-14" style="edgeStyle=orthogonalEdgeStyle;rounded=0;orthogonalLoop=1;jettySize=auto;html=1;entryX=0.5;entryY=0;entryDx=0;entryDy=0;" parent="1" source="uCTwqBEk31hx5L1SvOHl-11" target="uCTwqBEk31hx5L1SvOHl-13" edge="1">
          <mxGeometry relative="1" as="geometry" />
        </mxCell>
        <mxCell id="uCTwqBEk31hx5L1SvOHl-11" value="&lt;div&gt;range_min = 0;&lt;/div&gt;&lt;div&gt;&lt;span style=&quot;background-color: transparent; color: light-dark(rgb(0, 0, 0), rgb(255, 255, 255));&quot;&gt;range_max = 9;&lt;/span&gt;&lt;/div&gt;" style="rounded=0;whiteSpace=wrap;html=1;" parent="1" vertex="1">
          <mxGeometry x="350" y="370" width="100" height="40" as="geometry" />
        </mxCell>
        <mxCell id="uCTwqBEk31hx5L1SvOHl-16" style="edgeStyle=orthogonalEdgeStyle;rounded=0;orthogonalLoop=1;jettySize=auto;html=1;entryX=0.5;entryY=0;entryDx=0;entryDy=0;" parent="1" source="uCTwqBEk31hx5L1SvOHl-13" target="uCTwqBEk31hx5L1SvOHl-15" edge="1">
          <mxGeometry relative="1" as="geometry" />
        </mxCell>
        <mxCell id="uCTwqBEk31hx5L1SvOHl-25" style="edgeStyle=orthogonalEdgeStyle;rounded=0;orthogonalLoop=1;jettySize=auto;html=1;entryX=0.5;entryY=0;entryDx=0;entryDy=0;" parent="1" source="uCTwqBEk31hx5L1SvOHl-13" target="uCTwqBEk31hx5L1SvOHl-22" edge="1">
          <mxGeometry relative="1" as="geometry">
            <mxPoint x="540" y="770" as="targetPoint" />
            <Array as="points">
              <mxPoint x="541" y="470" />
              <mxPoint x="541" y="740" />
              <mxPoint x="400" y="740" />
            </Array>
          </mxGeometry>
        </mxCell>
        <mxCell id="uCTwqBEk31hx5L1SvOHl-13" value="for (int i = 0; i &amp;lt; rc; i++)" style="verticalLabelPosition=middle;verticalAlign=middle;html=1;shape=hexagon;perimeter=hexagonPerimeter2;arcSize=6;size=0.27;labelPosition=center;align=center;" parent="1" vertex="1">
          <mxGeometry x="320" y="440" width="160" height="60" as="geometry" />
        </mxCell>
        <mxCell id="uCTwqBEk31hx5L1SvOHl-18" style="edgeStyle=orthogonalEdgeStyle;rounded=0;orthogonalLoop=1;jettySize=auto;html=1;entryX=0.5;entryY=0;entryDx=0;entryDy=0;" parent="1" source="uCTwqBEk31hx5L1SvOHl-15" target="uCTwqBEk31hx5L1SvOHl-17" edge="1">
          <mxGeometry relative="1" as="geometry" />
        </mxCell>
        <mxCell id="uCTwqBEk31hx5L1SvOHl-20" style="edgeStyle=orthogonalEdgeStyle;rounded=0;orthogonalLoop=1;jettySize=auto;html=1;entryX=0;entryY=0.5;entryDx=0;entryDy=0;" parent="1" source="uCTwqBEk31hx5L1SvOHl-15" target="uCTwqBEk31hx5L1SvOHl-13" edge="1">
          <mxGeometry relative="1" as="geometry">
            <mxPoint x="230" y="480" as="targetPoint" />
            <Array as="points">
              <mxPoint x="510" y="560" />
              <mxPoint x="510" y="710" />
              <mxPoint x="260" y="710" />
              <mxPoint x="260" y="470" />
            </Array>
          </mxGeometry>
        </mxCell>
        <mxCell id="uCTwqBEk31hx5L1SvOHl-15" value="for (int j = 0; j &amp;lt; rc; j++)" style="verticalLabelPosition=middle;verticalAlign=middle;html=1;shape=hexagon;perimeter=hexagonPerimeter2;arcSize=6;size=0.27;labelPosition=center;align=center;" parent="1" vertex="1">
          <mxGeometry x="320" y="530" width="160" height="60" as="geometry" />
        </mxCell>
        <mxCell id="uCTwqBEk31hx5L1SvOHl-19" style="edgeStyle=orthogonalEdgeStyle;rounded=0;orthogonalLoop=1;jettySize=auto;html=1;entryX=0;entryY=0.5;entryDx=0;entryDy=0;" parent="1" source="uCTwqBEk31hx5L1SvOHl-17" target="uCTwqBEk31hx5L1SvOHl-15" edge="1">
          <mxGeometry relative="1" as="geometry">
            <Array as="points">
              <mxPoint x="400" y="680" />
              <mxPoint x="290" y="680" />
              <mxPoint x="290" y="560" />
            </Array>
          </mxGeometry>
        </mxCell>
        <mxCell id="uCTwqBEk31hx5L1SvOHl-17" value="table[i][j] = 0;" style="rounded=0;whiteSpace=wrap;html=1;" parent="1" vertex="1">
          <mxGeometry x="350" y="620" width="100" height="30" as="geometry" />
        </mxCell>
        <mxCell id="uCTwqBEk31hx5L1SvOHl-21" style="edgeStyle=orthogonalEdgeStyle;rounded=0;orthogonalLoop=1;jettySize=auto;html=1;entryX=0.5;entryY=0;entryDx=0;entryDy=0;" parent="1" source="uCTwqBEk31hx5L1SvOHl-22" edge="1">
          <mxGeometry relative="1" as="geometry">
            <mxPoint x="400" y="860" as="targetPoint" />
          </mxGeometry>
        </mxCell>
        <mxCell id="uCTwqBEk31hx5L1SvOHl-29" style="edgeStyle=orthogonalEdgeStyle;rounded=0;orthogonalLoop=1;jettySize=auto;html=1;entryX=0.5;entryY=0;entryDx=0;entryDy=0;" parent="1" source="uCTwqBEk31hx5L1SvOHl-22" target="uCTwqBEk31hx5L1SvOHl-32" edge="1">
          <mxGeometry relative="1" as="geometry">
            <mxPoint x="520" y="1000" as="targetPoint" />
            <Array as="points">
              <mxPoint x="520" y="800" />
              <mxPoint x="520" y="1030" />
              <mxPoint x="400" y="1030" />
            </Array>
          </mxGeometry>
        </mxCell>
        <mxCell id="uCTwqBEk31hx5L1SvOHl-22" value="for (int j = 0; j &amp;lt; rc; j++)" style="verticalLabelPosition=middle;verticalAlign=middle;html=1;shape=hexagon;perimeter=hexagonPerimeter2;arcSize=6;size=0.27;labelPosition=center;align=center;" parent="1" vertex="1">
          <mxGeometry x="320" y="770" width="160" height="60" as="geometry" />
        </mxCell>
        <mxCell id="uCTwqBEk31hx5L1SvOHl-27" style="edgeStyle=orthogonalEdgeStyle;rounded=0;orthogonalLoop=1;jettySize=auto;html=1;entryX=0.5;entryY=0;entryDx=0;entryDy=0;" parent="1" target="uCTwqBEk31hx5L1SvOHl-26" edge="1">
          <mxGeometry relative="1" as="geometry">
            <mxPoint x="400" y="900" as="sourcePoint" />
          </mxGeometry>
        </mxCell>
        <mxCell id="uCTwqBEk31hx5L1SvOHl-28" style="edgeStyle=orthogonalEdgeStyle;rounded=0;orthogonalLoop=1;jettySize=auto;html=1;entryX=0;entryY=0.5;entryDx=0;entryDy=0;" parent="1" source="uCTwqBEk31hx5L1SvOHl-26" target="uCTwqBEk31hx5L1SvOHl-22" edge="1">
          <mxGeometry relative="1" as="geometry">
            <mxPoint x="400" y="1020" as="targetPoint" />
            <Array as="points">
              <mxPoint x="400" y="1000" />
              <mxPoint x="280" y="1000" />
              <mxPoint x="280" y="800" />
            </Array>
          </mxGeometry>
        </mxCell>
        <mxCell id="uCTwqBEk31hx5L1SvOHl-26" value="table[i][a] = 1;" style="rounded=0;whiteSpace=wrap;html=1;" parent="1" vertex="1">
          <mxGeometry x="350" y="930" width="100" height="40" as="geometry" />
        </mxCell>
        <mxCell id="uCTwqBEk31hx5L1SvOHl-30" style="edgeStyle=orthogonalEdgeStyle;rounded=0;orthogonalLoop=1;jettySize=auto;html=1;exitX=0.5;exitY=1;exitDx=0;exitDy=0;" parent="1" source="uCTwqBEk31hx5L1SvOHl-15" target="uCTwqBEk31hx5L1SvOHl-15" edge="1">
          <mxGeometry relative="1" as="geometry" />
        </mxCell>
        <mxCell id="uCTwqBEk31hx5L1SvOHl-31" style="edgeStyle=orthogonalEdgeStyle;rounded=0;orthogonalLoop=1;jettySize=auto;html=1;entryX=0.5;entryY=0;entryDx=0;entryDy=0;" parent="1" source="uCTwqBEk31hx5L1SvOHl-32" target="uCTwqBEk31hx5L1SvOHl-35" edge="1">
          <mxGeometry relative="1" as="geometry" />
        </mxCell>
        <mxCell id="uCTwqBEk31hx5L1SvOHl-45" style="edgeStyle=orthogonalEdgeStyle;rounded=0;orthogonalLoop=1;jettySize=auto;html=1;entryX=0.5;entryY=0;entryDx=0;entryDy=0;" parent="1" source="uCTwqBEk31hx5L1SvOHl-32" target="uCTwqBEk31hx5L1SvOHl-46" edge="1">
          <mxGeometry relative="1" as="geometry">
            <mxPoint x="540" y="1541" as="targetPoint" />
            <Array as="points">
              <mxPoint x="540" y="1090" />
              <mxPoint x="540" y="1450" />
              <mxPoint x="400" y="1450" />
            </Array>
          </mxGeometry>
        </mxCell>
        <mxCell id="uCTwqBEk31hx5L1SvOHl-32" value="for (int i = 0; i &amp;lt; rc; i++)" style="verticalLabelPosition=middle;verticalAlign=middle;html=1;shape=hexagon;perimeter=hexagonPerimeter2;arcSize=6;size=0.27;labelPosition=center;align=center;" parent="1" vertex="1">
          <mxGeometry x="320" y="1060" width="160" height="60" as="geometry" />
        </mxCell>
        <mxCell id="uCTwqBEk31hx5L1SvOHl-33" style="edgeStyle=orthogonalEdgeStyle;rounded=0;orthogonalLoop=1;jettySize=auto;html=1;entryX=0.5;entryY=0;entryDx=0;entryDy=0;" parent="1" source="uCTwqBEk31hx5L1SvOHl-35" edge="1">
          <mxGeometry relative="1" as="geometry">
            <mxPoint x="400" y="1240" as="targetPoint" />
          </mxGeometry>
        </mxCell>
        <mxCell id="uCTwqBEk31hx5L1SvOHl-42" style="edgeStyle=orthogonalEdgeStyle;rounded=0;orthogonalLoop=1;jettySize=auto;html=1;entryX=0.5;entryY=0;entryDx=0;entryDy=0;" parent="1" source="uCTwqBEk31hx5L1SvOHl-35" target="uCTwqBEk31hx5L1SvOHl-41" edge="1">
          <mxGeometry relative="1" as="geometry">
            <Array as="points">
              <mxPoint x="510" y="1180" />
              <mxPoint x="510" y="1330" />
              <mxPoint x="400" y="1330" />
            </Array>
          </mxGeometry>
        </mxCell>
        <mxCell id="uCTwqBEk31hx5L1SvOHl-35" value="for (int j = 0; j &amp;lt; rc; j++)" style="verticalLabelPosition=middle;verticalAlign=middle;html=1;shape=hexagon;perimeter=hexagonPerimeter2;arcSize=6;size=0.27;labelPosition=center;align=center;" parent="1" vertex="1">
          <mxGeometry x="320" y="1150" width="160" height="60" as="geometry" />
        </mxCell>
        <mxCell id="uCTwqBEk31hx5L1SvOHl-36" style="edgeStyle=orthogonalEdgeStyle;rounded=0;orthogonalLoop=1;jettySize=auto;html=1;entryX=0;entryY=0.5;entryDx=0;entryDy=0;" parent="1" target="uCTwqBEk31hx5L1SvOHl-35" edge="1">
          <mxGeometry relative="1" as="geometry">
            <Array as="points">
              <mxPoint x="400" y="1300" />
              <mxPoint x="290" y="1300" />
              <mxPoint x="290" y="1180" />
            </Array>
            <mxPoint x="400" y="1270" as="sourcePoint" />
          </mxGeometry>
        </mxCell>
        <mxCell id="uCTwqBEk31hx5L1SvOHl-38" style="edgeStyle=orthogonalEdgeStyle;rounded=0;orthogonalLoop=1;jettySize=auto;html=1;exitX=0.5;exitY=1;exitDx=0;exitDy=0;" parent="1" source="uCTwqBEk31hx5L1SvOHl-35" target="uCTwqBEk31hx5L1SvOHl-35" edge="1">
          <mxGeometry relative="1" as="geometry" />
        </mxCell>
        <mxCell id="uCTwqBEk31hx5L1SvOHl-39" value="cout &amp;lt;&amp;lt; table[i][j] &amp;lt;&amp;lt; &quot; &quot;;" style="shape=parallelogram;perimeter=parallelogramPerimeter;whiteSpace=wrap;html=1;fixedSize=1;" parent="1" vertex="1">
          <mxGeometry x="320" y="1240" width="160" height="30" as="geometry" />
        </mxCell>
        <mxCell id="uCTwqBEk31hx5L1SvOHl-44" style="edgeStyle=orthogonalEdgeStyle;rounded=0;orthogonalLoop=1;jettySize=auto;html=1;entryX=0;entryY=0.5;entryDx=0;entryDy=0;" parent="1" source="uCTwqBEk31hx5L1SvOHl-41" target="uCTwqBEk31hx5L1SvOHl-32" edge="1">
          <mxGeometry relative="1" as="geometry">
            <Array as="points">
              <mxPoint x="400" y="1420" />
              <mxPoint x="260" y="1420" />
              <mxPoint x="260" y="1090" />
            </Array>
          </mxGeometry>
        </mxCell>
        <mxCell id="uCTwqBEk31hx5L1SvOHl-41" value="cout &amp;lt;&amp;lt; endl;" style="rounded=0;whiteSpace=wrap;html=1;" parent="1" vertex="1">
          <mxGeometry x="355" y="1360" width="90" height="30" as="geometry" />
        </mxCell>
        <mxCell id="uCTwqBEk31hx5L1SvOHl-46" value="Конец" style="ellipse;whiteSpace=wrap;html=1;aspect=fixed;" parent="1" vertex="1">
          <mxGeometry x="360" y="1540" width="80" height="80" as="geometry" />
        </mxCell>
        <mxCell id="uCTwqBEk31hx5L1SvOHl-47" value="return 0;&lt;div&gt;}&lt;/div&gt;" style="strokeWidth=2;html=1;shape=mxgraph.flowchart.annotation_2;align=left;labelPosition=right;pointerEvents=1;" parent="1" vertex="1">
          <mxGeometry x="400" y="1470" width="20" height="50" as="geometry" />
        </mxCell>
        <mxCell id="_pUfOadzc7FKge5_PuRa-1" value="a = randomize(range_min, range_max);" style="shape=process;whiteSpace=wrap;html=1;backgroundOutline=1;size=0.05555555555555555;" vertex="1" parent="1">
          <mxGeometry x="310" y="860" width="180" height="40" as="geometry" />
        </mxCell>
        <mxCell id="_pUfOadzc7FKge5_PuRa-4" style="edgeStyle=orthogonalEdgeStyle;rounded=0;orthogonalLoop=1;jettySize=auto;html=1;entryX=0.5;entryY=0;entryDx=0;entryDy=0;" edge="1" parent="1" source="_pUfOadzc7FKge5_PuRa-2" target="_pUfOadzc7FKge5_PuRa-3">
          <mxGeometry relative="1" as="geometry" />
        </mxCell>
        <mxCell id="_pUfOadzc7FKge5_PuRa-2" value="Начало" style="ellipse;whiteSpace=wrap;html=1;aspect=fixed;" vertex="1" parent="1">
          <mxGeometry x="720" width="80" height="80" as="geometry" />
        </mxCell>
        <mxCell id="_pUfOadzc7FKge5_PuRa-6" style="edgeStyle=orthogonalEdgeStyle;rounded=0;orthogonalLoop=1;jettySize=auto;html=1;entryX=0.5;entryY=0;entryDx=0;entryDy=0;" edge="1" parent="1" source="_pUfOadzc7FKge5_PuRa-3" target="_pUfOadzc7FKge5_PuRa-5">
          <mxGeometry relative="1" as="geometry" />
        </mxCell>
        <mxCell id="_pUfOadzc7FKge5_PuRa-3" value="int randomize(int range_min, int range_max)" style="shape=process;whiteSpace=wrap;html=1;backgroundOutline=1;size=0.05263157894736842;" vertex="1" parent="1">
          <mxGeometry x="665" y="120" width="190" height="50" as="geometry" />
        </mxCell>
        <mxCell id="_pUfOadzc7FKge5_PuRa-8" style="edgeStyle=orthogonalEdgeStyle;rounded=0;orthogonalLoop=1;jettySize=auto;html=1;entryX=0.5;entryY=0;entryDx=0;entryDy=0;" edge="1" parent="1" source="_pUfOadzc7FKge5_PuRa-5" target="_pUfOadzc7FKge5_PuRa-7">
          <mxGeometry relative="1" as="geometry" />
        </mxCell>
        <mxCell id="_pUfOadzc7FKge5_PuRa-5" value="int a = ((double)rand() / RAND_MAX) * (range_max - range_min) + range_min;" style="rounded=0;whiteSpace=wrap;html=1;" vertex="1" parent="1">
          <mxGeometry x="675" y="200" width="170" height="60" as="geometry" />
        </mxCell>
        <mxCell id="_pUfOadzc7FKge5_PuRa-10" style="edgeStyle=orthogonalEdgeStyle;rounded=0;orthogonalLoop=1;jettySize=auto;html=1;entryX=0.5;entryY=0;entryDx=0;entryDy=0;" edge="1" parent="1" source="_pUfOadzc7FKge5_PuRa-7" target="_pUfOadzc7FKge5_PuRa-9">
          <mxGeometry relative="1" as="geometry" />
        </mxCell>
        <mxCell id="_pUfOadzc7FKge5_PuRa-7" value="return a;" style="rounded=0;whiteSpace=wrap;html=1;" vertex="1" parent="1">
          <mxGeometry x="725" y="290" width="70" height="30" as="geometry" />
        </mxCell>
        <mxCell id="_pUfOadzc7FKge5_PuRa-9" value="Конец" style="ellipse;whiteSpace=wrap;html=1;aspect=fixed;" vertex="1" parent="1">
          <mxGeometry x="720" y="360" width="80" height="80" as="geometry" />
        </mxCell>
      </root>
    </mxGraphModel>
  </diagram>
</mxfile>
